<?xml version="1.0" encoding="UTF-8" standalone="no"?>
<svg
   xmlns:dc="http://purl.org/dc/elements/1.1/"
   xmlns:cc="http://creativecommons.org/ns#"
   xmlns:rdf="http://www.w3.org/1999/02/22-rdf-syntax-ns#"
   xmlns:svg="http://www.w3.org/2000/svg"
   xmlns="http://www.w3.org/2000/svg"
   xmlns:sodipodi="http://sodipodi.sourceforge.net/DTD/sodipodi-0.dtd"
   xmlns:inkscape="http://www.inkscape.org/namespaces/inkscape"
   width="210mm"
   height="297mm"
   viewBox="0 0 210 297"
   version="1.1"
   id="svg8"
   inkscape:version="1.0.1 (3bc2e813f5, 2020-09-07)"
   sodipodi:docname="knight.svg">
  <defs
     id="defs2" />
  <sodipodi:namedview
     id="base"
     pagecolor="#ffffff"
     bordercolor="#666666"
     borderopacity="1.0"
     inkscape:pageopacity="0.0"
     inkscape:pageshadow="2"
     inkscape:zoom="0.7"
     inkscape:cx="679.35805"
     inkscape:cy="511.01099"
     inkscape:document-units="mm"
     inkscape:current-layer="layer1"
     inkscape:document-rotation="0"
     showgrid="false"
     inkscape:window-width="2560"
     inkscape:window-height="1377"
     inkscape:window-x="2552"
     inkscape:window-y="-8"
     inkscape:window-maximized="1" />
  <metadata
     id="metadata5">
    <rdf:RDF>
      <cc:Work
         rdf:about="">
        <dc:format>image/svg+xml</dc:format>
        <dc:type
           rdf:resource="http://purl.org/dc/dcmitype/StillImage" />
        <dc:title></dc:title>
      </cc:Work>
    </rdf:RDF>
  </metadata>
  <g
     inkscape:label="Layer 1"
     inkscape:groupmode="layer"
     id="layer1">
    <path
       style="fill:#000000;stroke-width:6.765;stroke-miterlimit:4;stroke-dasharray:none"
       id="path1100"
       d="m 18.58499,27.115418 c 0.603192,1.206111 1.300702,2.369497 1.809574,3.618336 2.386502,5.85679 4.233053,12.392011 5.637629,18.475713 1.257752,5.447755 2.39545,10.926818 3.332657,16.438772 3.223839,18.960157 3.60766,26.637789 5.572916,46.419051 2.980264,36.61181 2.574242,73.41959 -0.405831,110.01311 -1.406293,17.26845 -2.46557,24.32964 -4.561877,40.96081 -0.778955,4.99996 -1.557909,9.99992 -2.336864,14.99989 0,0 23.4975,-11.77044 23.4975,-11.77044 v 0 c -0.123026,-4.55578 -0.246049,-9.11156 -0.369075,-13.66735 -0.23576,-21.01537 -0.391086,-42.0311 -0.554363,-63.04717 -0.127754,-16.44362 -0.331875,-40.02408 -0.321178,-56.32693 0.0063,-9.64701 0.101685,-19.29375 0.152527,-28.94063 0.127712,-16.540214 0.242367,-33.084025 0.416984,-49.62401 0.06475,-6.132912 0.171029,-12.265369 0.225546,-18.398382 0.03919,-4.408905 0.03706,-8.818081 0.05559,-13.227123 -0.0063,-2.842232 -0.04116,-5.684543 -0.01908,-8.526696 0.01222,-1.572589 0.08134,-3.144222 0.122002,-4.7163326 0,0 -32.254659,17.3193816 -32.254659,17.3193816 z" />
    <path
       style="fill:#000000;stroke-width:6.765;stroke-miterlimit:4;stroke-dasharray:none"
       id="path1120"
       d="m 107.76888,21.387151 c 0.24221,0.854673 0.60085,1.684636 0.72663,2.564018 0.97149,6.792416 -0.63627,13.630988 -2.47183,20.126324 -2.78093,9.840658 -4.42881,13.371729 -8.234224,23.244243 -6.082511,14.379017 -13.403474,28.252004 -22.525135,40.953254 -2.858196,3.97983 -5.953895,7.78946 -9.132839,11.51808 -5.885154,6.90277 -9.915554,10.58707 -16.229854,16.74875 -1.483556,1.41605 -8.184489,7.38615 -9.488712,9.96776 -0.642988,1.27275 -1.176296,2.87929 -0.693928,4.22117 1.554093,4.32329 8.232311,6.84658 11.451166,8.41756 3.760833,1.83551 7.596283,3.51401 11.394424,5.27102 4.749684,2.41221 9.565534,4.69835 14.249051,7.23665 22.083341,11.96837 43.251451,25.95858 61.496221,43.3237 4.02539,3.83131 7.69873,8.01627 11.54809,12.0244 3.07639,3.87184 6.33372,7.60656 9.22916,11.61551 7.25508,10.04522 13.62694,21.94271 16.79013,34.0084 0.38789,1.47957 0.60767,2.99818 0.91151,4.49728 0.36246,4.01883 0.33057,2.16696 0.2159,5.5522 0,0 31.7807,-16.80848 31.7807,-16.80848 v 0 c -1.14169,-3.31233 -0.45473,-1.52872 -2.13825,-5.32039 -0.75226,-1.34365 -1.4643,-2.71061 -2.25677,-4.03093 -2.57517,-4.29047 -5.30542,-8.32441 -8.25646,-12.38122 -2.13105,-2.92955 -4.2803,-5.8484 -6.53954,-8.68027 -2.747,-3.44326 -5.52505,-6.86758 -8.47441,-10.13917 -3.41236,-3.78517 -7.06612,-7.34553 -10.59918,-11.0183 -4.23387,-3.83326 -8.36627,-7.78165 -12.7016,-11.49977 -22.64626,-19.42212 -47.67513,-35.75358 -71.374475,-53.80847 -2.85564,-2.29429 -5.783326,-4.50168 -8.566925,-6.88286 -1.70856,-1.46156 -3.355004,-3.00211 -4.899128,-4.63644 -0.643459,-0.68104 -1.351304,-1.39186 -1.638946,-2.28356 -0.21695,-0.67255 -0.05713,-1.45923 0.22221,-2.10835 1.06557,-2.47617 4.708549,-6.45616 6.107901,-8.1428 4.56723,-5.41392 8.393377,-9.81387 12.702794,-15.58688 2.743748,-3.6756 5.428964,-7.39901 7.959754,-11.224357 8.851175,-13.378764 16.492585,-27.527779 23.593955,-41.895564 5.34168,-11.396109 10.97338,-22.756277 14.82504,-34.776078 1.79952,-5.615732 2.91552,-11.404186 3.70347,-17.23601 0,0 -32.6859,17.16958 -32.6859,17.16958 z" />
  </g>
</svg>
